<svg width="52" height="39" viewBox="0 0 52 39" fill="none" xmlns="http://www.w3.org/2000/svg">
<path d="M24.2832 4.1235L24.2836 4.12367C24.7981 4.33255 25 4.71008 25 5.00012V37C25 37.29 24.7981 37.6676 24.2836 37.8765L24.2835 37.8765C24.0835 37.9577 23.862 38 23.6364 38C23.2931 38 22.9684 37.9016 22.7211 37.7341L22.7208 37.7339L11.918 30.4216C11.5121 30.1469 11.0332 30 10.543 30H2.36364C1.44809 30 1 29.4017 1 29V13.0001C1 12.5985 1.44808 12.0001 2.36364 12.0001H10.543C11.0332 12.0001 11.5121 11.8533 11.918 11.5785L22.7208 4.26625L22.7216 4.26569C23.1426 3.98015 23.7629 3.91195 24.2832 4.1235Z" stroke="black" stroke-width="2"/>
<path d="M35 8.2124C35 8.2124 38.2 13.419 38.2 19.6669C38.2 25.9149 35 31.1215 35 31.1215" stroke="black" stroke-width="4"/>
<path d="M43.4004 1.6665C43.4004 1.6665 49.0004 9.84832 49.0004 19.6665C49.0004 29.4847 43.4004 37.6665 43.4004 37.6665" stroke="black" stroke-width="4"/>
</svg>
