<svg width="53" height="36" viewBox="0 0 53 36" fill="none" xmlns="http://www.w3.org/2000/svg">
<path d="M24.2832 1.1235L24.2836 1.12367C24.7981 1.33255 25 1.71008 25 2.00012V34C25 34.29 24.7981 34.6676 24.2836 34.8765L24.2835 34.8765C24.0835 34.9577 23.862 35 23.6364 35C23.2931 35 22.9684 34.9016 22.7211 34.7341L22.7208 34.7339L11.918 27.4216C11.5121 27.1469 11.0332 27 10.543 27H2.36364C1.44809 27 1 26.4017 1 26V10.0001C1 9.59846 1.44808 9.0001 2.36364 9.0001H10.543C11.0332 9.0001 11.5121 8.85325 11.918 8.5785L22.7208 1.26625L22.7216 1.26569C23.1426 0.980146 23.7629 0.911952 24.2832 1.1235Z" stroke="white" stroke-width="2"/>
<path d="M35 10L51 26" stroke="white" stroke-width="4"/>
<path d="M51 10L35 26" stroke="white" stroke-width="4"/>
</svg>
