<svg version="1.1" id="Ebene_1" xmlns="http://www.w3.org/2000/svg" xmlns:xlink="http://www.w3.org/1999/xlink" x="0px" y="0px" width="85px" height="35.62px" viewBox="0 0 85 35.62" enable-background="new 0 0 85 35.62" xml:space="preserve">
<path d="M81.35,29.938c0.751,0,1.223,0.398,1.354,1.148h-2.798C80.083,30.395,80.555,29.938,81.35,29.938 M85,31.676
	c0-2.148-1.576-3.576-3.637-3.576c-2.296,0-3.811,1.56-3.811,3.723c0,2.18,1.56,3.737,3.899,3.737c1.768,0,3.136-0.925,3.489-2.396
	h-2.369c-0.207,0.322-0.59,0.514-1.09,0.514c-0.898,0-1.354-0.471-1.546-1.104h5.019C85,32.292,85,31.954,85,31.676 M76.993,28.144
	c-1.06,0-1.825,0.34-2.458,0.884v-0.766h-2.398v7.136h2.398v-4.091c0.558-0.545,1.295-0.853,2.458-0.898V28.144z M67.386,33.562
	c-0.986,0-1.621-0.767-1.621-1.724c0-0.929,0.635-1.679,1.621-1.679c0.957,0,1.605,0.75,1.605,1.679
	C68.991,32.795,68.343,33.562,67.386,33.562 M67.386,28.1c-2.268,0-3.886,1.575-3.886,3.723c0,2.18,1.618,3.798,3.886,3.798
	c2.252,0,3.855-1.618,3.855-3.798C71.241,29.675,69.638,28.1,67.386,28.1 M58.655,33.62c-0.516,0-1.03-0.148-1.475-0.648v-2.24
	c0.444-0.5,0.959-0.662,1.475-0.662c0.972,0,1.68,0.797,1.68,1.769C60.335,32.839,59.627,33.62,58.655,33.62 M59.127,28.13
	c-0.782,0-1.414,0.204-1.946,0.528v-3.71h-2.396v10.449h2.396v-0.352c0.532,0.323,1.164,0.529,1.946,0.529
	c1.929,0,3.546-1.602,3.546-3.737C62.673,29.717,61.056,28.13,59.127,28.13 M49.632,33.591c-0.973,0-1.695-0.782-1.695-1.769
	c0-0.985,0.722-1.78,1.695-1.78c0.516,0,1.017,0.162,1.473,0.662v2.224C50.648,33.443,50.147,33.591,49.632,33.591 M53.487,28.262
	h-2.383v0.382c-0.53-0.338-1.164-0.544-1.96-0.544c-1.928,0-3.545,1.588-3.545,3.723c0,2.121,1.617,3.724,3.545,3.724
	c0.796,0,1.43-0.205,1.96-0.542v0.394h2.383V28.262z M44.438,24.947h-2.397v10.451h2.397V24.947z M40.729,33.252
	c-0.53,0.103-0.928,0.178-1.267,0.178c-0.706,0-1.118-0.355-1.118-1.077v-2.046h2.429v-2.045h-2.429v-2.429h-2.383v2.429h-1.398
	v2.045h1.398v2.12c0,1.928,1.147,3.193,2.869,3.193c0.707,0,1.236-0.06,2.165-0.352L40.729,33.252z M27.262,32.943
	c0.147,1.896,1.662,2.677,3.517,2.677c1.87,0,3.356-0.765,3.356-2.413c0-1.267-0.897-1.914-2.236-2.165l-1.327-0.221
	c-0.574-0.102-0.751-0.323-0.751-0.56c0-0.279,0.295-0.516,0.899-0.516c0.663,0,1.164,0.251,1.207,0.796h2.133
	c-0.118-1.884-1.823-2.473-3.34-2.473c-1.899,0-3.194,0.884-3.194,2.385c0,1.252,0.868,1.943,2.104,2.15l1.444,0.248
	c0.471,0.075,0.691,0.268,0.691,0.502c0,0.309-0.398,0.5-1.03,0.5c-0.738,0-1.252-0.278-1.356-0.899L27.262,32.943z M23.25,28.04
	c-0.766,0-1.385,0.25-1.959,0.692v-0.471h-2.398v7.136h2.398v-4.488c0.413-0.471,0.869-0.705,1.296-0.705
	c0.794,0,1.311,0.484,1.311,1.501v3.692h2.383v-4.076C26.281,29.291,25.045,28.04,23.25,28.04 M17.596,28.262h-2.383v4.505
	c-0.413,0.455-0.869,0.705-1.311,0.705c-0.781,0-1.312-0.485-1.312-1.5v-3.71h-2.382v4.077c0,2.03,1.236,3.281,3.046,3.281
	c0.766,0,1.385-0.251,1.958-0.691v0.469h2.383V28.262z M4.406,31.72l2.797,3.678h3.031l-4.136-5.62l3.812-4.386H6.967l-3.989,4.548
	v-4.548H0.492v10.006h2.485v-2.029L4.406,31.72z"></path>
<path d="M38.133,0L0,1.333l0.617,17.653l38.132-1.331L38.133,0z M9.414,11.99H8.083V9.305l-1.188,1.834v0.007h-0.74v-0.007
	L4.958,9.289l0.008,2.701H3.636V6.637h0.992l1.896,2.857l1.898-2.857h0.992V11.99z M16.782,9.494c0,1.66-0.961,2.614-2.496,2.614
	c-1.527,0-2.487-0.954-2.487-2.614V6.637h1.338v2.88c0,0.818,0.448,1.346,1.149,1.346c0.7,0,1.157-0.528,1.157-1.346v-2.88h1.339
	V9.494z M23.544,7.825h-1.709v4.165h-1.323V7.825h-1.708V6.637h4.741V7.825z M27.215,11.99h-1.331V6.637h1.331V11.99z M33.492,11.99
	l-1.495-1.969l-0.763,0.882v1.087h-1.332V6.637h1.332v2.432l2.133-2.432h1.574l-2.038,2.344l2.212,3.009H33.492z"></path>
</svg>
