<?xml version="1.0" encoding="UTF-8"?>
<svg width="721px" height="198px" viewBox="0 0 721 198" version="1.1" xmlns="http://www.w3.org/2000/svg" xmlns:xlink="http://www.w3.org/1999/xlink">
    <!-- Generator: Sketch 52.2 (67145) - http://www.bohemiancoding.com/sketch -->
    <title>taz_logo</title>
    <desc>Created with Sketch.</desc>
    <g id="Page-1" stroke="none" stroke-width="1" fill="none" fill-rule="evenodd">
        <g id="taz_logo" fill="#000000" fill-rule="nonzero">
            <path d="M132.853,166.613 C129.432,163.435 131.387,152.194 142.873,138.02 C153.137,125.313 162.667,122.136 169.51,125.313 C166.333,133.132 162.667,138.753 157.78,145.596 C151.181,154.882 139.451,165.635 132.853,166.613 Z M153.869,158.792 C152.403,169.789 152.647,176.388 156.313,180.786 C169.753,179.319 179.773,171.988 189.792,158.792 C186.859,169.3 188.814,175.654 191.747,181.274 C200.056,181.274 206.165,174.187 212.519,165.878 C218.873,157.325 224.494,150.727 230.114,150.727 C237.934,150.727 228.404,173.943 237.446,182.496 L276.302,154.882 C305.627,136.554 340.084,134.843 368.677,134.843 C415.841,134.843 477.913,139.487 515.303,155.86 C517.258,148.773 514.081,137.776 509.927,131.911 C501.863,120.914 463.739,112.117 396.78,111.628 C337.396,111.14 297.074,125.314 277.035,140.465 L248.443,162.459 C241.6,158.793 253.819,133.866 247.954,131.178 C231.825,123.847 213.496,154.15 208.853,156.838 C209.831,147.552 216.673,131.911 226.937,118.715 C224.737,114.072 213.007,108.695 209.342,114.561 C201.766,126.78 196.634,141.443 192.48,146.819 C185.882,155.617 174.885,164.414 168.775,164.414 C166.087,157.083 182.215,131.424 192.48,118.227 C187.104,112.362 181.972,111.873 177.084,113.339 C174.64,114.072 173.418,116.76 172.441,118.715 C169.508,116.516 164.132,115.538 156.801,115.538 C150.692,115.538 138.962,118.471 123.077,139.487 C110.125,156.593 110.369,177.121 118.678,182.253 C131.875,182.252 148.493,166.368 153.869,158.792 Z M354.992,43.935 C361.101,42.469 383.829,39.781 422.929,41.98 C443.946,43.202 513.105,53.466 526.301,56.398 C521.413,76.926 502.352,90.122 492.332,91.1 C474.004,93.055 445.9,88.901 419.019,88.656 C368.678,88.168 336.665,94.033 315.892,99.165 C299.763,103.075 274.837,116.271 266.772,123.358 C269.46,100.386 278.746,93.544 298.297,85.235 C314.425,78.392 330.799,75.704 370.388,71.061 C391.649,68.617 434.904,68.128 460.808,70.816 C432.46,62.507 395.071,58.842 381.629,59.575 C366.723,60.308 336.419,61.53 327.133,66.417 C330.798,49.8 339.84,47.356 354.992,43.935 Z M101.083,147.551 C117.212,127.023 127.476,120.425 155.579,77.659 C165.11,63.241 173.419,49.311 175.863,33.671 C176.352,30.005 175.618,25.118 171.708,22.918 C185.149,21.208 205.188,21.696 225.96,22.185 C260.173,23.163 289.498,26.583 301.229,26.828 C310.759,27.072 320.779,18.03 323.467,9.477 C314.914,7.767 237.69,-2.741 153.625,0.68 C83.488,3.613 27.037,7.034 7.731,20.475 C-4.243,27.806 0.4,48.089 3.821,52.488 C12.13,46.623 25.815,40.758 47.321,36.359 C74.691,30.494 112.081,25.851 157.291,24.14 C154.847,42.224 145.805,52.732 133.831,70.327 C114.769,98.431 79.579,120.181 63.695,159.525 C58.808,171.744 64.184,188.606 73.959,197.159 L75.914,196.181 C78.845,178.587 89.354,162.458 101.083,147.551 Z M563.934,123.602 C567.111,127.512 565.401,137.776 558.802,142.174 C554.159,145.352 549.76,146.818 544.384,146.818 C541.94,146.818 539.252,149.506 538.275,149.995 C545.85,133.377 556.847,123.602 563.934,123.602 Z M638.225,184.941 C640.18,156.104 648.245,135.577 658.752,118.959 C667.55,118.471 702.74,118.227 709.094,115.538 C716.425,112.361 719.602,106.008 720.824,99.165 C713.004,102.586 682.457,103.563 666.816,105.029 C670.726,97.943 677.569,89.145 684.167,84.013 C683.923,81.813 671.948,76.926 667.55,80.347 C660.707,85.723 656.553,95.254 651.421,104.54 C647.511,105.028 644.334,104.052 639.691,105.762 C636.514,106.984 630.649,111.139 632.36,119.203 C636.759,118.958 641.402,118.47 644.335,118.225 C640.914,123.601 630.161,143.64 627.229,151.215 C618.187,157.569 604.747,166.611 595.949,168.077 C592.283,162.945 599.37,147.306 602.792,141.684 C608.168,133.13 613.3,126.044 620.876,118.468 C612.566,112.603 606.458,113.091 602.548,115.78 C594.972,120.912 588.618,140.218 582.509,152.681 C558.804,167.832 555.138,170.032 543.164,170.521 C541.453,168.077 535.588,162.945 537.299,155.37 C552.206,156.592 567.602,151.704 573.955,143.395 C580.554,134.597 582.264,125.311 575.177,115.046 C570.534,112.603 547.807,106.249 531.434,129.465 C515.305,151.947 523.37,175.897 533.877,182.494 C550.006,182.494 564.913,177.362 580.554,162.7 C579.087,168.809 578.354,176.386 584.219,181.272 C597.171,180.294 618.188,166.121 624.786,160.255 C622.342,170.275 621.364,172.475 623.075,179.317 C624.295,183.963 633.093,185.918 638.225,184.941 Z M620.63,101.364 C625.273,101.364 629.183,98.187 629.183,94.277 C629.183,90.123 625.273,86.946 620.63,86.946 C615.986,86.946 612.076,90.123 612.076,94.277 C612.077,98.187 615.987,101.364 620.63,101.364 Z" id="Shape"></path>
        </g>
    </g>
</svg>